<svg width="32" height="32" viewBox="0 0 32 32" fill="none" xmlns="http://www.w3.org/2000/svg">
<g clip-path="url(#clip0_755_9316)">
<path d="M24.7109 5.66724C25.0148 6.40227 25.5982 6.98652 26.3328 7.29154L28.9086 8.35846C29.6436 8.66295 30.2277 9.24697 30.5322 9.98205C30.8366 10.7171 30.8366 11.5431 30.5322 12.2782L29.466 14.8521C29.1614 15.5875 29.161 16.4143 29.467 17.1493L30.5313 19.7225C30.6822 20.0866 30.7599 20.4768 30.76 20.8709C30.7601 21.2651 30.6825 21.6553 30.5316 22.0195C30.3808 22.3836 30.1597 22.7144 29.881 22.9931C29.6022 23.2717 29.2713 23.4927 28.9072 23.6434L26.3332 24.7096C25.5982 25.0135 25.0139 25.5969 24.7089 26.3314L23.642 28.9072C23.3375 29.6423 22.7535 30.2263 22.0184 30.5308C21.2833 30.8353 20.4574 30.8353 19.7223 30.5308L17.1484 29.4647C16.4133 29.1609 15.5876 29.1615 14.853 29.4664L12.2772 30.5318C11.5425 30.8355 10.7173 30.8353 9.98284 30.5311C9.24836 30.2268 8.66466 29.6435 8.35997 28.9092L7.29273 26.3326C6.98881 25.5976 6.40544 25.0134 5.67087 24.7083L3.09509 23.6414C2.36033 23.3371 1.77648 22.7534 1.47189 22.0188C1.16729 21.2841 1.16688 20.4586 1.47074 19.7236L2.5369 17.1497C2.84063 16.4146 2.84001 15.5889 2.53517 14.8543L1.47054 12.2766C1.3196 11.9126 1.24188 11.5223 1.24182 11.1282C1.24175 10.7341 1.31935 10.3438 1.47018 9.97966C1.621 9.61553 1.8421 9.28469 2.12083 9.00605C2.39957 8.7274 2.73048 8.50641 3.09465 8.3557L5.66858 7.28954C6.40297 6.98589 6.98687 6.40325 7.29212 5.66953L8.35904 3.09375C8.66352 2.35867 9.24755 1.77464 9.98263 1.47016C10.7177 1.16568 11.5436 1.16568 12.2787 1.47016L14.8527 2.53632C15.5878 2.84005 16.4134 2.83943 17.148 2.53459L19.7249 1.47182C20.4599 1.1675 21.2856 1.16757 22.0206 1.47199C22.7555 1.77641 23.3395 2.36027 23.644 3.09516L24.7112 5.6717L24.7109 5.66724Z" fill="#0788F5"/>
<path fill-rule="evenodd" clip-rule="evenodd" d="M22.2665 11.8058C22.4803 11.4701 22.5519 11.0631 22.4656 10.6746C22.3794 10.286 22.1423 9.94759 21.8065 9.73383C21.4708 9.52006 21.0638 9.44843 20.6753 9.5347C20.2867 9.62097 19.9483 9.85806 19.7345 10.1938L13.8605 19.4238L11.1725 16.0638C10.924 15.753 10.5622 15.5536 10.1667 15.5095C9.77118 15.4655 9.37436 15.5803 9.06352 15.8288C8.75269 16.0773 8.55331 16.4391 8.50923 16.8347C8.46516 17.2302 8.58001 17.627 8.82852 17.9378L12.8285 22.9378C12.9776 23.1244 13.1691 23.2727 13.387 23.3703C13.6049 23.468 13.843 23.5122 14.0815 23.4993C14.32 23.4864 14.5519 23.4167 14.758 23.2961C14.9641 23.1755 15.1385 23.0074 15.2665 22.8058L22.2665 11.8058Z" fill="white"/>
</g>
<defs>
<clipPath id="clip0_755_9316">
<rect width="32" height="32" fill="white"/>
</clipPath>
</defs>
</svg>
